<?xml version="1.0" encoding="iso-8859-1"?>
<!-- Uploaded to: SVG Repo, www.svgrepo.com, Generator: SVG Repo Mixer Tools -->
<svg fill="#FFDB6E" width="45" height="45" viewBox="0 0 480 480" xmlns="http://www.w3.org/2000/svg">
<g>
	<g>
		<g>
			<path d="M480,104V40c0-22.056-17.944-40-40-40H40C17.944,0,0,17.944,0,40v64c0,22.056,17.944,40,40,40v280
				c-22.056,0-40,17.944-40,40v8c0,4.416,3.584,8,8,8h464c4.416,0,8-3.584,8-8v-8c0-22.056-17.944-40-40-40V144
				C462.056,144,480,126.056,480,104z M464,464H16c0-13.232,10.768-24,24-24h8h384h8C453.232,440,464,450.768,464,464z M104,376H56
				V144h112v24c0,10.416,6.712,19.216,16,22.528V208c0,4.416,3.584,8,8,8s8-3.584,8-8v-16h80v16c0,4.416,3.584,8,8,8
				c4.416,0,8-3.584,8-8v-17.472c9.288-3.312,16-12.112,16-22.528v-24h112v232h-48c-4.416,0-8,3.584-8,8c0,4.416,3.584,8,8,8h48v32
				h-96v-8c0-13.232-10.768-24-24-24h-8.88c4.696-4.592,8.544-10.008,11.4-16H320c13.232,0,24-10.768,24-24v-56
				c0-13.232-10.768-24-24-24h-8v-16c0-4.416-3.584-8-8-8H176c-4.416,0-8,3.584-8,8v96c0,15.664,6.48,29.824,16.88,40H176
				c-13.232,0-24,10.768-24,24v8H56v-32h48c4.416,0,8-3.584,8-8C112,379.584,108.416,376,104,376z M184,168v-24h112v24
				c0,4.408-3.592,8-8,8h-96C187.592,176,184,172.408,184,168z M224,408h32h48c4.408,0,8,3.592,8,8v8H168v-8c0-4.408,3.592-8,8-8
				H224z M184,352v-88h112v88c0,22.056-17.944,40-40,40h-32C201.944,392,184,374.056,184,352z M311.36,360
				c0.376-2.624,0.64-5.28,0.64-8v-64h8c4.408,0,8,3.592,8,8v56c0,4.408-3.592,8-8,8H311.36z M432,128H304H176H48h-8
				c-13.232,0-24-10.768-24-24V40c0-13.232,10.768-24,24-24h400c13.232,0,24,10.768,24,24v64c0,13.232-10.768,24-24,24H432z"/>
			<path d="M111.68,248.64c13.408,0,24.32-10.912,24.32-24.32c0-13.408-10.912-24.32-24.32-24.32
				c-13.408,0-24.32,10.912-24.32,24.32S98.272,248.64,111.68,248.64z M111.68,216c4.584,0,8.32,3.736,8.32,8.32
				c0,4.584-3.736,8.32-8.32,8.32c-4.584,0-8.32-3.736-8.32-8.32S107.096,216,111.68,216z"/>
			<path d="M136,288.32c0-13.408-10.912-24.32-24.32-24.32c-13.408,0-24.32,10.912-24.32,24.32s10.912,24.32,24.32,24.32
				C125.088,312.64,136,301.728,136,288.32z M111.68,296.64c-4.584,0-8.32-3.736-8.32-8.32c0-4.584,3.736-8.32,8.32-8.32
				c4.584,0,8.32,3.736,8.32,8.32C120,292.904,116.264,296.64,111.68,296.64z"/>
			<path d="M344,248h40c13.232,0,24-10.768,24-24v-16c0-4.416-3.584-8-8-8h-40c-13.232,0-24,10.768-24,24v16
				C336,244.416,339.584,248,344,248z M352,224c0-4.408,3.592-8,8-8h32v8c0,4.408-3.592,8-8,8h-32V224z"/>
			<path d="M248,33.28c-18.6,0-34.168,13.2-37.864,30.72H200c-4.416,0-8,3.584-8,8s3.584,8,8,8h10.136
				c3.696,17.52,19.264,30.72,37.864,30.72c21.344,0,38.72-17.368,38.72-38.72S269.344,33.28,248,33.28z M248,94.72
				c-9.704,0-17.936-6.144-21.192-14.72H232c4.416,0,8-3.584,8-8s-3.584-8-8-8h-5.192c3.256-8.576,11.488-14.72,21.192-14.72
				c12.528,0,22.72,10.192,22.72,22.72S260.528,94.72,248,94.72z"/>
			<path d="M144,64h-10.136C130.168,46.48,114.6,33.28,96,33.28c-21.344,0-38.72,17.368-38.72,38.72S74.656,110.72,96,110.72
				c18.6,0,34.168-13.2,37.864-30.72H144c4.416,0,8-3.584,8-8S148.416,64,144,64z M112,80h5.192
				C113.944,88.576,105.704,94.72,96,94.72c-12.528,0-22.72-10.192-22.72-22.72S83.472,49.28,96,49.28
				c9.704,0,17.936,6.144,21.192,14.72H112c-4.416,0-8,3.584-8,8S107.584,80,112,80z"/>
			<path d="M384,33.28c-18.6,0-34.168,13.2-37.864,30.72H336c-4.416,0-8,3.584-8,8s3.584,8,8,8h10.136
				c3.696,17.52,19.264,30.72,37.864,30.72c21.344,0,38.72-17.368,38.72-38.72S405.344,33.28,384,33.28z M384,94.72
				c-9.704,0-17.936-6.144-21.192-14.72H368c4.416,0,8-3.584,8-8s-3.584-8-8-8h-5.192c3.256-8.576,11.488-14.72,21.192-14.72
				c12.528,0,22.72,10.192,22.72,22.72S396.528,94.72,384,94.72z"/>
		</g>
	</g>
</g>
</svg>